<?xml version="1.0" encoding="utf-8"?>
<!-- Generator: Adobe Illustrator 21.0.2, SVG Export Plug-In . SVG Version: 6.00 Build 0)  -->
<svg version="1.1" id="Layer_1" xmlns="http://www.w3.org/2000/svg" xmlns:xlink="http://www.w3.org/1999/xlink" x="0px" y="0px"
	 viewBox="0 0 239 50" style="enable-background:new 0 0 239 50;" xml:space="preserve">
<style type="text/css">
	.st0{fill:#3F75BA;}
	.st1{fill:#F5F5F5;}
</style>
<g>
	<path class="st0" d="M25.5,0.5C12,0.4,1,11.5,0.9,25c0,13.5,11,24.5,24.5,24.5C39,49.6,50,38.6,50,25C50,11.5,39,0.5,25.5,0.5z"/>
	<path class="st1" d="M28.5,26.4c4.5,0,9,0,13.4,0c0.3,0,0.6,0,1,0c-3.2-5.7-6.4-11.4-9.6-17.1c-2.6,4.6-5.1,9-7.6,13.5
		c-2.6-4.5-5.1-9-7.6-13.5c-3.1,5.6-6.2,11-9.2,16.4c-0.4,0.8-0.4,0.8,0.5,0.8c4.5,0,9,0,13.4,0c1,0,1,0,0.5,0.8
		c-1.6,2.9-3.3,5.8-4.9,8.6c-0.8,1.4-1.6,2.8-2.3,4.2c0.2,0.2,0.4,0.1,0.6,0.1c6,0,11.9,0,17.9,0c0.8,0,0.7-0.3,0.4-0.8
		c-2.3-4.1-4.6-8.1-6.9-12.2C27.5,26.4,27.5,26.4,28.5,26.4z M33.2,16c1.3,2.4,2.6,4.7,4,7c-2.7,0-5.2,0-7.9,0
		C30.6,20.6,31.9,18.3,33.2,16z M21.3,23c-2.2,0-4.5,0-6.7,0c-0.2,0-0.7,0.1-0.4-0.4c1.2-2.2,2.4-4.3,3.7-6.7
		c0.8,1.3,1.4,2.5,2.1,3.7c0.5,0.9,1,1.8,1.6,2.8C21.9,22.9,21.8,23,21.3,23z M29.3,36.3c0.1,0.2,0.4,0.5-0.2,0.5
		c-2.5,0-4.9,0-7.5,0c1.4-2.4,2.6-4.7,4-7.1c0.7,1.3,1.3,2.4,2,3.5C28.2,34.2,28.7,35.2,29.3,36.3z"/>
	<g>
		<path class="st0" d="M73.8,33.5c-3.4,0.3-6.3,0.5-8.6,0.5c-1.5,0-2.6-0.4-3.3-1.1c-0.7-0.7-1.1-1.8-1.1-3.3v-7.4
			c0-1.6,0.4-2.8,1.1-3.5c0.7-0.7,1.9-1.1,3.5-1.1h8.3v3.2h-7.4c-0.9,0-1.4,0.5-1.4,1.4v7.4c0,0.4,0.1,0.6,0.3,0.8
			c0.2,0.2,0.5,0.3,0.8,0.3s0.7,0,1.1,0s0.8,0,1.2,0c0.4,0,0.8,0,1.3,0s1,0,1.6-0.1s1.5-0.1,2.5-0.2V33.5z"/>
		<path class="st0" d="M89.8,33.7h-4.2v-6.6h-5.8v6.6h-4.2V17.5h4.2v6.4h5.8v-6.4h4.2V33.7z"/>
		<path class="st0" d="M105.4,33.7H92.5V17.5h12.9v3.2h-8.7v3.1h6.8v3.2h-6.8v3.4h8.7V33.7z"/>
		<path class="st0" d="M119.7,33.5c-3.4,0.3-6.3,0.5-8.6,0.5c-1.5,0-2.6-0.4-3.3-1.1c-0.7-0.7-1.1-1.8-1.1-3.3v-7.4
			c0-1.6,0.4-2.8,1.1-3.5c0.7-0.7,1.9-1.1,3.5-1.1h8.3v3.2h-7.4c-0.9,0-1.4,0.5-1.4,1.4v7.4c0,0.4,0.1,0.6,0.3,0.8
			c0.2,0.2,0.5,0.3,0.8,0.3s0.7,0,1.1,0s0.8,0,1.2,0c0.4,0,0.8,0,1.3,0s1,0,1.6-0.1s1.5-0.1,2.5-0.2V33.5z"/>
		<path class="st0" d="M125.8,33.7h-4.2V17.5h4.2v6.4h2.1l3.6-6.4h4.4l-4.5,8l4.5,8.2h-4.4l-3.6-6.6h-2.1V33.7z"/>
		<path class="st0" d="M158.1,24.7l-3.2,5.8h-3.2l-3.2-5.8v9h-4.2V17.5h4.4l4.6,8.6l4.6-8.6h4.4v16.2h-4.2V24.7z"/>
		<path class="st0" d="M163.2,17.5h4.4l3.8,7.9l3.8-7.9h4.4l-6.1,11.9v4.3h-4.2v-4.3L163.2,17.5z"/>
		<path class="st0" d="M201.4,24.7l-3.2,5.8h-3.2l-3.2-5.8v9h-4.2V17.5h4.4l4.6,8.6l4.6-8.6h4.4v16.2h-4.2V24.7z"/>
		<path class="st0" d="M223,29.3c0,1.6-0.4,2.8-1.1,3.5c-0.7,0.7-1.9,1.1-3.5,1.1h-5.8c-1.6,0-2.8-0.4-3.5-1.1
			c-0.7-0.7-1.1-1.9-1.1-3.5v-7.4c0-1.6,0.4-2.8,1.1-3.5c0.7-0.7,1.9-1.1,3.5-1.1h5.8c1.6,0,2.8,0.4,3.5,1.1
			c0.7,0.7,1.1,1.9,1.1,3.5V29.3z M218.8,21.9c0-0.9-0.5-1.4-1.4-1.4h-3.9c-0.9,0-1.4,0.5-1.4,1.4v7.4c0,0.9,0.5,1.4,1.4,1.4h3.9
			c0.9,0,1.4-0.5,1.4-1.4V21.9z"/>
		<path class="st0" d="M233.1,33.7H229v-13h-4.9v-3.2H238v3.2h-4.9V33.7z"/>
	</g>
</g>
</svg>
